<svg width="600" height="400" xmlns="http://www.w3.org/2000/svg">
  <!-- Background -->
  <rect width="600" height="400" fill="#f0f7ff" rx="10" ry="10"/>
  
  <!-- Dashboard Frame -->
  <rect x="50" y="50" width="500" height="300" rx="8" ry="8" fill="#ffffff" stroke="#2563eb" stroke-width="2"/>
  
  <!-- Header -->
  <rect x="50" y="50" width="500" height="40" rx="8" ry="8" fill="#2563eb"/>
  <circle cx="80" cy="70" r="10" fill="#ffffff"/>
  <circle cx="110" cy="70" r="10" fill="#ffffff"/>
  <circle cx="140" cy="70" r="10" fill="#ffffff"/>
  
  <!-- Review Section -->
  <rect x="70" y="110" width="460" height="70" rx="5" ry="5" fill="#f8fafc" stroke="#e2e8f0" stroke-width="1"/>
  <circle cx="100" cy="145" r="20" fill="#e2e8f0"/>
  <rect x="130" y="125" width="200" height="10" rx="2" ry="2" fill="#64748b"/>
  <rect x="130" y="145" width="380" height="10" rx="2" ry="2" fill="#e2e8f0"/>
  <rect x="130" y="165" width="380" height="10" rx="2" ry="2" fill="#e2e8f0"/>
  
  <!-- Response Section -->
  <rect x="70" y="190" width="460" height="70" rx="5" ry="5" fill="#f0f9ff" stroke="#2563eb" stroke-width="1"/>
  <rect x="90" y="205" width="420" height="10" rx="2" ry="2" fill="#2563eb" opacity="0.3"/>
  <rect x="90" y="225" width="420" height="10" rx="2" ry="2" fill="#2563eb" opacity="0.3"/>
  <rect x="90" y="245" width="300" height="10" rx="2" ry="2" fill="#2563eb" opacity="0.3"/>
  
  <!-- Analytics Section -->
  <rect x="70" y="270" width="220" height="60" rx="5" ry="5" fill="#f8fafc" stroke="#e2e8f0" stroke-width="1"/>
  
  <!-- Graph -->
  <polyline points="90,310 130,290 170,300 210,280 250,270" fill="none" stroke="#2563eb" stroke-width="2"/>
  <circle cx="90" cy="310" r="3" fill="#2563eb"/>
  <circle cx="130" cy="290" r="3" fill="#2563eb"/>
  <circle cx="170" cy="300" r="3" fill="#2563eb"/>
  <circle cx="210" cy="280" r="3" fill="#2563eb"/>
  <circle cx="250" cy="270" r="3" fill="#2563eb"/>
  
  <!-- Analytics Section 2 -->
  <rect x="310" y="270" width="220" height="60" rx="5" ry="5" fill="#f8fafc" stroke="#e2e8f0" stroke-width="1"/>
  
  <!-- Donut Chart -->
  <circle cx="340" cy="300" r="20" fill="none" stroke="#e2e8f0" stroke-width="5"/>
  <path d="M 340 280 A 20 20 0 0 1 358 308" fill="none" stroke="#2563eb" stroke-width="5"/>
  
  <!-- Legend -->
  <rect x="370" y="290" width="60" height="8" rx="2" ry="2" fill="#2563eb"/>
  <rect x="370" y="305" width="40" height="8" rx="2" ry="2" fill="#e2e8f0"/>
  <rect x="440" y="290" width="60" height="8" rx="2" ry="2" fill="#64748b"/>
  <rect x="440" y="305" width="40" height="8" rx="2" ry="2" fill="#64748b" opacity="0.5"/>
  
  <!-- AI Icon -->
  <circle cx="540" cy="330" r="25" fill="#2563eb" opacity="0.2"/>
  <text x="540" y="337" font-family="Arial" font-size="14" text-anchor="middle" fill="#2563eb" font-weight="bold">AI</text>
</svg> 